<svg xmlns="http://www.w3.org/2000/svg" viewBox="0 0 512 512">
  <rect width="512" height="512" fill="none"/>
  <g transform="translate(256,256)">
    <!-- Wave shapes -->
    <path d="M-200,30 C-130,-40 -60,60 0,0 C60,-60 130,40 200,-30" 
          stroke="#1a3a5c" stroke-width="40" fill="none" stroke-linecap="round"/>
    <path d="M-200,60 C-130,-10 -60,90 0,30 C60,-30 130,70 200,0" 
          stroke="#4aa8d8" stroke-width="35" fill="none" stroke-linecap="round"/>
    <!-- Center node -->
    <circle cx="0" cy="0" r="25" fill="#1a3a5c"/>
    <circle cx="0" cy="0" r="15" fill="#4aa8d8"/>
    <!-- Connected nodes -->
    <circle cx="-80" cy="-30" r="12" fill="#4aa8d8"/>
    <line x1="0" y1="0" x2="-80" y2="-30" stroke="#1a3a5c" stroke-width="4"/>
    <circle cx="80" cy="-20" r="12" fill="#1a3a5c"/>
    <line x1="0" y1="0" x2="80" y2="-20" stroke="#1a3a5c" stroke-width="4"/>
    <circle cx="60" cy="50" r="10" fill="#4aa8d8"/>
    <line x1="0" y1="0" x2="60" y2="50" stroke="#4aa8d8" stroke-width="3"/>
    <circle cx="-70" cy="40" r="10" fill="#1a3a5c"/>
    <line x1="0" y1="0" x2="-70" y2="40" stroke="#4aa8d8" stroke-width="3"/>
  </g>
</svg>